<svg version="1.0" xmlns="http://www.w3.org/2000/svg"
 width="1261.000000pt" height="373.000000pt" viewBox="0 0 1261.000000 373.000000"
 preserveAspectRatio="xMidYMid meet">

<g transform="translate(0.000000,373.000000) scale(0.100000,-0.100000)"
fill="#000000" stroke="none">
<path d="M8128 2978 c-7 -15 -10 -50 -8 -98 6 -112 4 -324 -4 -354 -4 -15 -22
-44 -42 -66 -30 -34 -52 -44 -147 -75 -62 -20 -134 -50 -161 -66 -47 -29 -48
-29 -42 -7 4 13 14 61 23 108 12 69 13 99 4 158 -12 80 -29 113 -67 130 -94
44 -636 -51 -755 -131 -48 -32 -47 -49 7 -93 99 -82 122 -111 146 -186 45
-142 26 -445 -48 -763 -46 -202 -50 -214 -106 -307 -27 -45 -64 -114 -83 -152
-47 -97 -128 -193 -195 -233 -133 -78 -381 -74 -475 8 -149 131 -108 356 116
639 209 264 229 296 254 402 20 85 20 240 0 279 -9 16 -34 43 -57 59 -36 27
-49 30 -113 30 -57 0 -82 -5 -125 -27 -98 -49 -230 -204 -270 -316 -34 -97
-32 -97 -57 -1 -33 124 -63 185 -125 250 -131 140 -285 213 -421 201 -128 -11
-278 -152 -330 -311 -16 -49 -20 -86 -20 -191 1 -247 50 -355 280 -620 84 -97
116 -122 353 -275 182 -117 301 -200 286 -200 -4 0 -51 -9 -104 -20 -53 -10
-167 -24 -252 -30 -85 -6 -247 -20 -360 -30 -349 -34 -737 -52 -1460 -69 -335
-8 -602 -26 -739 -51 -30 -6 -71 -10 -91 -10 l-36 0 8 93 c4 50 12 198 18 327
5 129 13 245 16 257 8 27 71 38 229 38 102 0 113 -2 156 -27 32 -19 51 -38 58
-60 15 -43 49 -78 68 -71 13 5 15 28 12 147 l-4 140 35 8 c19 4 136 7 260 6
124 -1 231 2 238 6 22 13 13 39 -27 73 -22 18 -57 62 -77 96 -70 117 -182 282
-209 307 -15 14 -63 76 -108 138 -99 138 -143 175 -207 170 l-45 -4 175 176
c183 183 263 285 258 329 -6 54 -157 132 -318 164 -41 9 -156 23 -255 32 -99
8 -230 20 -291 25 -112 10 -187 6 -235 -12 -51 -18 -80 -105 -154 -460 -25
-117 -61 -274 -80 -348 -31 -115 -38 -160 -45 -302 -5 -93 -12 -173 -15 -178
-4 -6 -6 -84 -6 -175 1 -132 -3 -181 -19 -247 -14 -55 -22 -134 -26 -233 -6
-161 -24 -246 -71 -339 -31 -62 -150 -176 -225 -216 l-57 -31 -49 21 c-54 23
-140 121 -173 195 -29 65 -34 151 -13 226 25 93 104 252 185 376 79 121 175
312 209 418 12 39 38 109 56 157 28 72 34 102 34 163 0 44 -6 90 -15 111 -25
59 -113 135 -202 173 -43 18 -116 51 -163 72 -108 49 -158 62 -355 95 -141 23
-168 25 -228 15 -38 -6 -87 -21 -110 -32 -48 -24 -117 -87 -117 -106 0 -21 25
-15 51 13 40 43 101 73 175 85 63 11 87 10 210 -10 207 -34 256 -48 411 -117
78 -35 145 -64 150 -64 17 0 99 -73 125 -111 35 -52 44 -127 24 -194 -22 -77
-100 -292 -135 -375 -36 -84 -103 -204 -168 -299 -55 -80 -135 -237 -162 -321
-25 -76 -28 -194 -6 -266 21 -70 126 -199 187 -230 26 -13 60 -24 75 -24 67 0
225 116 294 217 17 24 44 81 61 126 27 74 31 99 38 252 5 105 15 197 26 240
13 51 18 112 19 230 1 172 28 531 45 605 6 25 24 92 40 150 16 58 48 197 71
310 45 225 79 346 108 381 17 21 27 23 112 24 107 0 354 -18 539 -40 200 -23
410 -102 410 -154 0 -49 -205 -273 -450 -490 -96 -86 -227 -203 -290 -261 -63
-58 -142 -128 -175 -155 -98 -82 -325 -306 -325 -321 0 -34 43 -7 135 87 55
55 151 144 214 197 63 53 145 124 183 157 173 149 333 265 366 265 32 0 99
-66 175 -173 36 -51 78 -104 93 -117 26 -25 150 -205 214 -312 19 -32 49 -73
67 -92 l33 -34 -220 2 c-121 0 -220 5 -220 9 0 9 -55 6 -330 -19 -159 -14
-553 -33 -635 -30 -29 1 -40 -3 -43 -16 -3 -13 10 -17 75 -23 42 -4 123 -5
178 -2 260 16 459 26 555 30 l105 4 3 -100 4 -100 -35 36 c-44 47 -92 67 -178
74 -69 6 -250 -13 -281 -29 -29 -14 -37 -72 -48 -333 -5 -137 -13 -287 -16
-332 -7 -82 -7 -82 19 -94 21 -10 52 -9 149 4 262 36 462 50 688 48 127 -1
317 6 440 15 118 9 234 13 257 10 24 -3 111 -1 195 4 84 6 198 12 253 15 115
7 267 19 492 39 87 8 208 18 268 21 61 4 149 15 197 26 48 10 103 19 122 19
43 0 64 23 45 47 -23 28 -146 114 -309 218 -226 144 -279 185 -362 282 -181
213 -228 294 -253 440 -29 166 -15 299 43 407 34 64 126 156 184 184 121 59
319 -7 456 -152 66 -70 103 -146 138 -286 28 -110 40 -138 56 -122 4 4 23 49
41 99 46 122 76 171 157 257 108 114 212 151 298 107 65 -33 74 -55 73 -167
-1 -53 -6 -116 -11 -141 -18 -79 -77 -175 -214 -348 -185 -233 -246 -363 -246
-521 1 -132 88 -238 223 -269 158 -36 318 -10 438 72 40 27 137 155 166 220
14 32 41 82 59 110 49 76 90 163 99 203 4 19 20 91 36 159 44 184 71 386 72
546 1 119 -2 153 -22 224 -21 75 -30 91 -75 135 -28 28 -67 63 -86 78 l-35 26
59 27 c115 51 440 115 586 115 52 0 100 -4 106 -8 40 -27 54 -150 30 -268 -19
-96 -108 -352 -141 -410 -13 -22 -37 -74 -54 -115 -16 -41 -43 -102 -59 -137
-46 -97 -54 -208 -15 -200 10 2 40 74 88 208 90 255 158 423 190 472 33 50
107 91 234 130 116 36 159 68 191 142 24 57 34 233 19 339 -9 59 -9 88 -2 102
10 17 12 15 22 -21 14 -49 14 -275 0 -369 -5 -38 -12 -149 -14 -245 -7 -331
-17 -468 -34 -502 -14 -27 -28 -35 -105 -59 -148 -46 -245 -130 -307 -265 -25
-56 -111 -421 -113 -484 -1 -23 2 -25 41 -23 51 2 127 32 367 144 183 86 196
90 365 125 134 27 189 34 231 30 81 -9 90 0 106 120 21 148 35 371 29 439 -4
33 -12 94 -20 135 -30 161 -52 616 -37 795 l7 90 90 12 c50 6 164 12 255 12
150 1 239 5 615 30 66 5 121 8 122 6 6 -4 -387 -136 -452 -151 -86 -21 -258
-93 -345 -144 -36 -21 -84 -44 -108 -51 -47 -14 -68 -32 -56 -50 8 -14 151 -7
304 16 58 8 184 18 280 21 l175 5 -105 -34 c-136 -43 -286 -106 -356 -148
-103 -62 -234 -236 -234 -311 0 -52 22 -133 53 -191 34 -64 112 -133 192 -168
60 -26 188 -41 246 -27 41 9 222 37 225 34 1 0 -2 -100 -6 -221 -9 -237 -17
-301 -56 -468 -21 -86 -29 -107 -41 -103 -24 10 -180 25 -405 40 -55 3 -306
-11 -598 -34 -151 -12 -186 -24 -154 -51 13 -11 62 -15 213 -17 108 -1 270 -9
361 -19 141 -14 324 -16 1280 -17 1038 -1 1117 -3 1147 -19 40 -21 43 -21 43
1 0 12 -14 25 -39 37 -36 16 -116 17 -1172 20 -961 2 -1158 5 -1289 19 -85 9
-175 16 -199 16 -97 0 -25 8 174 20 185 11 233 11 400 -4 105 -10 205 -21 223
-26 39 -10 59 -5 66 18 9 31 36 146 52 222 14 65 32 357 33 535 l1 60 64 23
c125 45 294 171 402 302 82 98 99 138 99 240 0 74 -3 91 -27 131 -27 46 -98
117 -121 121 -6 1 71 5 173 8 164 4 185 7 188 22 5 25 -59 49 -148 55 -55 4
-104 0 -183 -16 -99 -20 -135 -21 -465 -20 -352 2 -407 -1 -632 -37 l-35 -6
45 31 c77 54 243 125 345 148 38 8 171 51 294 94 124 44 249 82 278 86 60 7
90 23 78 43 -8 14 -119 11 -425 -10 -80 -5 -275 -14 -435 -20 -304 -11 -442
-23 -459 -40 -35 -35 -17 -689 25 -930 25 -146 23 -288 -7 -508 l-18 -134 -51
7 c-37 4 -96 -3 -226 -29 -195 -39 -212 -45 -419 -144 -151 -72 -255 -115
-304 -128 -26 -6 -28 -5 -21 15 4 12 24 104 45 204 47 226 70 278 165 373 74
74 134 106 225 120 47 8 84 45 99 102 6 20 13 149 16 287 3 137 13 326 22 419
20 213 15 363 -15 429 -23 53 -53 63 -74 25z m1892 -479 c58 -26 86 -53 117
-114 22 -42 25 -58 21 -120 -7 -100 -38 -153 -163 -274 -112 -109 -204 -174
-305 -214 -56 -23 -67 -24 -76 -12 -16 21 -34 19 -96 -10 -87 -41 -252 -31
-399 24 -54 21 -116 75 -153 134 -44 71 -27 186 42 293 34 52 54 70 141 123
56 35 124 72 151 82 55 21 250 59 430 83 63 9 129 20 145 26 38 11 87 4 145
-21z"/>
</g>
</svg>
