<svg version="1.0" xmlns="http://www.w3.org/2000/svg"
 width="864.000000pt" height="897.000000pt" viewBox="0 0 864.000000 897.000000"
 preserveAspectRatio="xMidYMid meet">

<g transform="translate(0.000000,897.000000) scale(0.100000,-0.100000)"
fill="#000000" stroke="none">
<path d="M1940 8466 c-85 -29 -201 -74 -257 -100 -56 -26 -124 -52 -152 -59
-28 -6 -50 -16 -48 -22 2 -5 -13 -22 -34 -37 -36 -26 -40 -33 -54 -91 -13 -63
53 -220 107 -252 26 -15 43 -17 112 -11 44 4 124 15 176 26 52 10 133 21 180
25 47 3 110 12 140 20 63 17 79 13 23 -5 -69 -22 -206 -78 -318 -128 -380
-172 -445 -205 -445 -222 0 -18 18 -17 110 6 94 25 249 88 405 167 65 32 205
87 223 87 2 0 -9 -15 -25 -33 -72 -82 -173 -317 -173 -402 0 -18 -11 -23 -69
-37 -80 -19 -221 -74 -287 -113 -75 -44 -35 -58 85 -30 62 15 335 121 476 185
189 86 325 112 325 61 0 -45 -79 -94 -250 -156 -302 -109 -496 -239 -560 -375
-46 -98 4 -144 150 -137 98 4 195 39 480 172 91 43 223 104 295 136 71 32 134
64 140 72 5 7 26 19 45 27 19 8 81 60 138 116 80 80 113 106 150 118 91 31
232 145 314 255 71 94 136 235 152 326 22 125 20 24 -3 -175 -41 -349 -54
-511 -55 -687 -1 -168 0 -183 20 -209 25 -35 41 -40 46 -17 3 10 8 -9 12 -42
23 -176 45 -267 76 -315 47 -73 160 -175 239 -214 130 -66 182 -79 346 -85
l149 -6 -54 -43 c-142 -112 -306 -299 -424 -485 -42 -65 -76 -155 -76 -199 0
-23 4 -28 25 -28 41 0 109 73 247 262 141 194 207 263 262 273 46 9 74 -1 185
-68 50 -31 113 -60 139 -66 83 -18 152 10 200 79 40 59 44 99 37 335 -5 144
-3 229 3 245 9 21 11 22 11 5 1 -11 10 -108 21 -215 16 -152 18 -202 9 -229
-23 -67 13 -356 40 -325 4 5 4 87 -1 182 -7 161 -7 176 12 211 29 58 68 85
187 126 142 50 176 68 207 107 l26 33 0 -297 c0 -187 -4 -299 -10 -303 -5 -3
-10 -14 -10 -24 0 -14 -21 -23 -107 -44 -187 -46 -327 -131 -421 -255 -90
-119 -115 -240 -72 -354 61 -164 249 -224 475 -151 214 69 513 303 560 440 13
37 14 38 57 33 103 -12 212 -5 260 17 99 45 177 160 219 322 19 73 19 74 13
21 -3 -30 -21 -140 -41 -245 -19 -104 -42 -226 -50 -270 -9 -50 -15 -142 -15
-246 l0 -166 -92 -6 c-95 -7 -249 -42 -639 -146 -122 -33 -266 -69 -319 -81
-68 -15 -98 -26 -98 -36 0 -9 10 -14 28 -14 52 0 258 29 389 55 327 64 611
101 708 93 l55 -5 -6 54 c-8 64 7 70 55 23 36 -36 50 -79 58 -176 7 -93 -8
-140 -52 -161 -31 -15 -41 -14 -182 18 -136 31 -161 34 -308 34 -181 -1 -286
-18 -400 -66 -79 -33 -156 -86 -181 -124 -42 -64 -35 -154 19 -243 61 -102
142 -127 383 -119 142 4 271 22 379 53 18 5 18 4 -2 -11 -34 -24 -108 -133
-148 -216 -45 -96 -58 -168 -53 -309 3 -99 7 -123 31 -173 35 -78 142 -184
221 -221 88 -42 210 -54 317 -33 190 37 364 161 439 312 31 63 34 78 35 155 0
72 -4 94 -28 144 -39 83 -120 189 -177 231 -92 68 -224 115 -323 115 l-42 0
45 26 c25 14 52 32 61 40 9 8 22 14 30 12 7 -2 13 2 14 9 0 6 34 38 77 72 184
145 261 235 368 431 34 63 75 132 90 153 l28 38 7 -63 c3 -35 22 -187 42 -338
43 -333 55 -680 32 -940 -9 -101 -13 -318 -14 -622 0 -256 -4 -470 -8 -475 -5
-4 -75 -7 -155 -5 -81 2 -257 -4 -392 -12 -478 -31 -803 -22 -1360 38 -74 8
-182 17 -240 21 -58 4 -244 20 -415 36 -429 40 -689 57 -1045 69 -394 13 -684
29 -738 41 -24 5 -47 7 -51 5 -13 -8 -482 13 -650 29 -143 14 -166 14 -179 1
-19 -19 -2 -27 113 -56 197 -48 347 -151 379 -259 9 -30 16 -65 16 -77 0 -12
-30 -59 -69 -106 -37 -47 -89 -119 -115 -159 -142 -224 -134 -209 -113 -209 7
0 23 17 35 38 11 20 69 96 127 167 58 72 115 150 127 175 12 25 61 88 108 140
47 52 108 123 135 158 26 34 49 62 50 62 1 0 -2 -33 -6 -72 -4 -40 -13 -176
-20 -303 -6 -126 -14 -253 -18 -281 l-6 -51 -115 -60 c-63 -33 -171 -96 -240
-140 -69 -44 -149 -92 -177 -107 -61 -30 -69 -50 -19 -44 34 4 34 4 41 -47 4
-27 9 -158 11 -290 4 -190 8 -243 19 -254 22 -22 129 -31 230 -20 113 14 254
50 515 134 348 112 662 178 757 160 46 -8 33 -23 -27 -31 -28 -4 -50 -10 -50
-15 0 -12 37 -11 82 1 84 24 49 60 -58 60 -139 0 -359 -49 -700 -155 -369
-116 -463 -137 -610 -137 -142 0 -134 -13 -134 215 l0 193 68 22 c37 12 180
42 317 67 288 53 345 67 423 101 79 35 56 42 -108 34 -74 -4 -136 -7 -137 -6
-2 1 60 24 137 50 77 27 140 52 140 57 0 13 -24 11 -108 -10 -143 -36 -447
-74 -599 -75 l-141 -1 91 59 c159 102 367 216 393 216 2 0 4 -39 4 -87 0 -79
10 -126 24 -113 2 3 17 57 33 120 l28 115 65 30 c36 16 182 88 325 159 143 71
289 138 325 150 109 35 90 48 -90 65 -176 17 -330 -7 -421 -64 -58 -37 -126
-129 -192 -262 -24 -47 -43 -72 -58 -76 -22 -6 -22 -5 -15 86 4 51 13 197 21
325 16 260 21 295 44 335 14 25 20 27 56 22 66 -8 380 -24 705 -35 274 -10
662 -31 795 -45 211 -22 493 -47 665 -60 113 -9 304 -26 425 -40 457 -50 703
-56 1187 -29 156 9 335 14 398 11 63 -2 130 -2 148 0 l33 5 -3 442 c-2 357 1
488 16 686 23 301 17 554 -19 845 -13 110 -32 271 -42 358 -11 102 -21 157
-29 157 -17 0 -85 -101 -154 -229 -33 -62 -80 -138 -104 -170 -55 -71 -163
-174 -258 -244 -70 -52 -76 -54 -138 -56 -106 -2 -151 -11 -230 -47 -117 -52
-295 -85 -485 -91 -248 -8 -318 16 -374 129 -55 110 -39 193 51 259 112 81
246 118 458 126 150 5 163 3 420 -52 101 -22 141 -11 171 48 19 36 21 52 16
130 -8 118 -40 188 -97 213 -35 16 -40 22 -46 63 -15 96 3 319 40 506 42 211
100 537 115 648 16 115 15 400 -1 394 -8 -2 -12 -18 -11 -38 1 -19 -7 -92 -18
-164 -10 -71 -26 -186 -35 -255 -37 -295 -88 -422 -198 -497 -66 -45 -116 -57
-211 -49 -115 9 -125 13 -125 47 0 16 -14 64 -32 106 -70 166 -222 266 -350
230 l-28 -7 -1 252 c0 259 -20 662 -32 674 -16 17 -19 -15 -18 -189 1 -178 0
-184 -22 -204 -30 -28 -66 -45 -169 -81 -123 -44 -164 -67 -196 -111 l-28 -38
-17 191 c-19 211 -24 239 -41 233 -29 -9 -35 -73 -33 -323 l2 -252 -30 -43
c-46 -65 -74 -82 -138 -81 -60 0 -94 15 -215 89 -89 55 -141 64 -198 35 -55
-28 -93 -72 -241 -272 -122 -164 -199 -250 -224 -250 -18 0 -2 67 32 136 43
90 210 315 298 402 42 41 107 100 144 130 100 81 95 86 -93 93 -172 7 -209 16
-349 89 -87 46 -203 156 -239 227 -20 40 -23 54 -47 222 -21 143 -42 210 -76
242 l-29 27 10 158 c10 146 25 303 64 634 18 159 41 548 32 557 -17 17 -29
-25 -37 -129 -11 -155 -35 -316 -56 -380 -10 -29 -40 -93 -67 -143 -67 -122
-208 -265 -316 -318 -40 -21 -75 -35 -77 -33 -2 2 5 19 16 37 33 57 54 147 48
205 -7 68 -60 168 -110 208 -90 72 -274 30 -292 -67 -10 -52 22 -185 66 -275
49 -100 101 -142 178 -142 l46 0 -80 -80 c-44 -44 -102 -92 -129 -105 -26 -13
-53 -31 -60 -39 -6 -8 -81 -45 -166 -84 -85 -38 -234 -106 -331 -150 -305
-141 -436 -171 -518 -121 -29 18 -33 24 -27 51 26 130 242 288 536 393 58 20
133 50 166 66 120 56 164 149 79 165 -47 8 -171 -25 -291 -79 -56 -25 -173
-75 -260 -110 -138 -55 -182 -70 -289 -93 -11 -3 9 11 45 29 77 41 197 83 261
92 l46 7 7 53 c22 188 159 413 286 470 22 10 40 22 40 27 0 13 -18 9 -68 -16
-26 -13 -81 -34 -122 -46 -41 -12 -158 -62 -260 -110 -166 -79 -354 -150 -365
-138 -3 2 26 18 63 36 337 157 419 194 502 225 209 80 316 119 338 124 12 3
22 12 22 19 0 8 -1 14 -3 14 -2 0 -74 -18 -160 -39 -86 -22 -196 -43 -244 -46
-49 -4 -129 -15 -180 -26 -50 -10 -129 -22 -175 -25 l-84 -7 -32 32 c-44 44
-84 172 -72 227 5 21 19 47 32 58 46 37 144 79 241 103 54 13 124 35 155 49
32 14 97 36 147 50 127 36 157 50 153 71 -6 31 -47 24 -208 -31z m151 13 c-25
-11 -74 -27 -110 -36 -36 -9 -100 -31 -141 -48 -41 -18 -88 -35 -105 -38 -69
-15 45 33 206 87 165 56 232 71 150 35z m819 -547 c77 -39 138 -166 126 -266
-3 -28 -22 -84 -41 -123 l-36 -73 -47 0 c-63 0 -109 26 -149 84 -37 54 -78
173 -88 259 -7 57 -7 58 29 92 20 18 46 36 58 38 54 10 115 6 148 -11z m566
-897 c5 -37 4 -47 -5 -40 -6 6 -14 33 -17 60 -5 37 -4 47 5 40 6 -6 14 -33 17
-60z m2914 -844 c-13 -107 -42 -259 -35 -181 11 118 40 322 43 301 2 -13 -1
-67 -8 -120z m-1463 -168 c-2 -21 -4 -4 -4 37 0 41 2 58 4 38 2 -21 2 -55 0
-75z m663 -119 c25 -12 64 -42 87 -66 45 -46 100 -153 110 -212 5 -35 5 -36
-18 -27 -53 20 -252 122 -291 149 -54 38 -94 80 -84 89 4 5 13 0 20 -10 15
-19 36 -23 36 -6 0 6 -9 22 -20 36 -30 38 -26 61 13 72 42 12 91 4 147 -25z
m-190 -35 c0 -5 -4 -9 -10 -9 -5 0 -10 7 -10 16 0 8 5 12 10 9 6 -3 10 -10 10
-16z m-18 -58 c25 -45 99 -95 258 -173 80 -39 147 -73 149 -74 1 -2 -8 -28
-23 -59 -46 -102 -239 -267 -419 -359 -104 -53 -206 -79 -301 -78 -124 1 -201
43 -252 134 -26 47 -29 63 -29 138 0 100 18 147 92 242 83 105 223 190 385
232 118 32 120 32 140 -3z m854 -855 c1 0 4 -20 7 -43 l5 -43 -58 0 c-123 0
-350 -32 -735 -104 -71 -13 -157 -26 -190 -30 l-60 -5 65 15 c36 9 137 36 225
61 258 73 543 144 609 152 48 7 125 5 132 -3z m164 -741 c0 -9 -137 -83 -185
-101 -103 -36 -81 -43 52 -17 107 21 181 10 291 -42 100 -47 147 -87 210 -177
71 -103 87 -148 87 -238 0 -65 -5 -85 -33 -142 -78 -159 -252 -280 -447 -310
-92 -14 -202 0 -282 37 -76 35 -166 124 -206 204 -29 60 -32 76 -35 176 -6
177 18 262 114 406 71 107 111 134 256 174 114 30 178 42 178 30z m-4155
-1545 c110 -6 251 -14 312 -17 112 -5 113 -5 101 -26 -17 -32 -112 -150 -197
-246 l-75 -83 -16 65 c-9 36 -28 81 -43 100 -60 78 -194 153 -356 198 l-106
29 90 -5 c50 -2 180 -9 290 -15z m1110 -416 l70 -6 -50 -19 c-27 -10 -184 -86
-348 -169 -164 -82 -305 -150 -313 -150 -20 0 0 47 66 149 89 138 168 186 330
200 85 7 114 7 245 -5z m-1054 -91 c-24 -35 -86 -103 -74 -83 15 25 84 110 89
110 3 0 -4 -12 -15 -27z m339 -377 c-11 -43 -22 -81 -25 -84 -3 -3 -5 28 -5
70 0 68 2 76 23 85 12 6 23 10 24 9 1 -1 -7 -36 -17 -80z m50 -217 c-77 -30
-126 -35 -216 -22 -46 6 -39 8 96 29 194 29 209 28 120 -7z m-590 -14 c0 -2
-10 -9 -22 -15 -22 -11 -22 -10 -4 4 21 17 26 19 26 11z m73 -12 c-7 -2 -21
-2 -30 0 -10 3 -4 5 12 5 17 0 24 -2 18 -5z m345 -20 c33 -5 30 -7 -60 -45
-122 -52 -286 -115 -320 -123 -27 -7 -28 -6 -28 33 0 21 -3 59 -6 84 l-6 45
93 11 c91 10 259 8 327 -5z m382 -2 c-39 -23 -534 -121 -546 -108 -2 2 51 26
119 53 129 52 172 59 352 62 57 1 84 -2 75 -7z"/>
<path d="M4111 2123 c-17 -21 -46 -82 -67 -142 -21 -58 -44 -116 -52 -129 -8
-12 -12 -25 -9 -28 9 -9 -56 -185 -149 -406 -45 -108 -88 -214 -95 -236 -16
-54 -6 -88 33 -108 54 -28 136 -13 310 55 269 105 612 231 628 231 5 0 -19
-48 -51 -107 -32 -60 -59 -111 -59 -115 0 -5 6 -8 14 -8 16 0 48 47 111 163
26 48 50 87 55 87 4 0 10 12 13 28 8 35 226 378 318 499 74 98 139 161 216
212 70 46 77 43 69 -31 -19 -163 -108 -432 -237 -709 -185 -399 -268 -640
-231 -663 5 -3 9 16 10 42 2 81 61 232 271 689 103 225 185 475 206 626 14
100 -21 113 -120 42 -96 -68 -186 -173 -317 -370 -66 -99 -122 -182 -125 -185
-3 -3 7 22 22 55 14 33 47 109 72 169 27 63 61 126 81 148 48 53 35 74 -14 23
-69 -72 -295 -192 -546 -291 -166 -65 -238 -100 -238 -115 0 -5 14 -18 31 -27
17 -9 54 -32 82 -51 69 -46 141 -78 225 -99 l70 -18 -81 -29 c-45 -15 -176
-64 -292 -108 -394 -148 -452 -161 -501 -112 -32 32 -32 32 79 290 49 116 110
266 134 335 40 114 52 136 134 244 71 95 89 125 89 152 0 31 -3 34 -29 34 -22
0 -38 -10 -60 -37z m69 1 c0 -22 -15 -47 -77 -127 -33 -42 -53 -62 -48 -47 22
73 49 134 72 160 27 32 53 39 53 14z m739 -356 c-51 -123 -120 -266 -167 -347
l-25 -44 -81 6 c-92 6 -191 39 -262 88 -25 17 -64 41 -86 54 l-41 23 49 25
c27 13 103 46 168 72 119 46 345 157 441 214 28 16 51 30 52 30 1 1 -21 -54
-48 -121z"/>
</g>
</svg>
