<svg id="레이어_1" data-name="레이어 1" xmlns="http://www.w3.org/2000/svg" viewBox="0 0 1920 1080"><path d="M421.75,350.1l-73.3,110.37,2.74,1.16c5.94-16.22,12.64-34.48,28.48-43.56,7.61-4.37,17-6.39,25.47-3.36,7,2.5,12.77,7.82,18.37,12.47,7,5.85,16.44,14.74,26.45,11.54,13.12-4.19,12.7-21.89,13.94-32.89l7.61-67.22h-3a324.27,324.27,0,0,1-5.8,106.47h2.9a90.52,90.52,0,0,1,22.15-76c13-14.14,34.66-30.17,29.13-52.08-.43-1.71-2.82-1.22-2.94.4a1152.48,1152.48,0,0,0-1.63,148.09l2.26-1.29c-19.22-10.8-42.69-3.25-56.94,12.19-13.82,15-22.31,36.9-22.58,57.25-.21,16.49,5.78,35.19,23,40.79,19.74,6.42,37.94-10.22,45.95-26.78,9-18.69,9-45.29-5.66-61.23-6.39-6.93-15.59-11.74-25.13-12-8.16-.2-18,3.17-21.17,11.41s2.67,16.87,10,20.48c10.21,5.06,22.85,1.83,33.47,0,26-4.49,52-10.54,76.13-21.65,38.44-17.74,77.56-54.88,76.84-100.5-.28-18-9.43-37.79-29.56-39.33-22.31-1.7-37.89,17.14-44.82,36.2S561.9,426.86,576.38,444c13.52,16,37.64,16.51,55.29,7.79,20.47-10.12,35.56-30.51,45.37-50.59a150,150,0,0,0,15.15-66.89A143.92,143.92,0,0,0,688,301c-.67-2.71-2.33-5.56-.51-7.86,1.62-2,4.85-3.21,7.23-3.77,6-1.4,12.75.26,17.86,3.61,11.09,7.27,14,22.22,15.48,34.43,1.85,14.89,2.9,29.92,3.59,44.9q1,21.82.56,43.68-.21,10.92-.79,21.83c-.42,7.8.09,17.51-7.36,22.3-5,3.21-11.71,4.05-17.39,5.42L683.94,471l-45.48,11-43.22,10.42c-1.69.41-1.25,2.88.4,2.95l53.78,2.2c7.89.33,17.19-.56,24.82,1.63,10,2.87,10.78,12,7.43,20.42-2.83,7.06-7.68,12.85-12.33,18.77L653,559.18l-32.69,41.59c-.73.92-.37,2.64,1.06,2.56a310.35,310.35,0,0,0,99-22c27.81-11.25,57.8-26.16,77.16-49.86a73.21,73.21,0,0,0,16.28-36.33c2.49-17.92-.78-36.15-3-53.92q-7.2-56.55-14.41-113.1c-.38-3-2.85-10.41-.74-12.94.7-.85,5.28-1.26,6.39-1.51q4.28-.94,8.58-1.73a241.69,241.69,0,0,1,32.18-3.71,247.92,247.92,0,0,1,62.68,5.05l-.66-2.5a374.33,374.33,0,0,1-110.36,65.57,1.5,1.5,0,0,0,.8,2.89A352,352,0,0,1,902,378.07l-.66-2.51a267.9,267.9,0,0,1-85.89,49.15l1.46,2.51c37.07-31.7,96.93-29.86,132.06,3.92l.67-2.51q-93.78,26.73-189.18,47.18c-1.9.4-1.09,3.26.8,2.89l176-34.9-1.46-2.51a255.8,255.8,0,0,1-139.24,89.88l1.15,2.75A383.22,383.22,0,0,1,863.17,512c11.27-2.68,22.67-4.84,34.13-6.47,10.08-1.43,20.71-3.28,30.91-2.46C939.6,504,948.34,511,947.94,523c-.36,10.87-6.16,20.83-11.06,30.21l-33.51,64a1.5,1.5,0,0,0,2.59,1.51c30.18-43.85,34-98.06,37.06-149.6,1.63-27.63,3-55.41,8-82.68,1.17-6.38,2-13.61,5.34-19.29,4.54-7.71,13-9.21,21.09-10.8q24.46-4.81,49.2-8.1a824.19,824.19,0,0,1,111-7.13l-.4-3L956,413c-1.47.61-1.43,2.94.4,2.95l162.3.45-.76-2.79c-27.8,11.88-56.53,24.15-78.87,45.12-19.61,18.41-33.69,43.87-32.62,71.32a1.57,1.57,0,0,0,1.1,1.45c16.55,5.24,36.26,10.74,51.67-.45,10.47-7.6,16.92-20.89,16-33.84-2-26.74-36.43-39.6-56.55-23-1.2,1,.1,2.87,1.46,2.51,66.5-17.73,116.18-82.14,116.47-151a1.51,1.51,0,0,0-3-.4,773.58,773.58,0,0,0-15.71,254.7,1.5,1.5,0,0,0,3,0l3.81-66.65c.58-10.1-.34-22.43,5-31.49,4.65-8,13.56-11.85,22-14.29,19.86-5.7,41.06-8.47,61.53-10.87A578.38,578.38,0,0,1,1278.9,453a1.52,1.52,0,0,0,1.06-2.56,937.85,937.85,0,0,1-75.39-89.56l-1.3,2.25a1942.25,1942.25,0,0,1,207-4.3l-.4-2.95a1222,1222,0,0,0-183.24,72.47c-1.39.68-.65,2.76.76,2.79A942.06,942.06,0,0,0,1393.7,419.7l-.8-2.9a214.78,214.78,0,0,0-125.42,71.13c-8.66,10.08-22.45,24-15.33,38.27,6.41,12.8,22.16,20.72,35.61,23.44,14.24,2.87,29.52.87,42.13-6.51a61.35,61.35,0,0,0,26.28-32.43,59.4,59.4,0,0,0,3.43-21.13c0-2.09.29-5.18-.89-7-1.59-2.4-5.81-4.52-8.2-6-27.13-16.8-64.69-13.27-88.12,8.32a1.52,1.52,0,0,0,.67,2.51c34.66,12.89,73.94,5.51,104.19-14.89,32.1-21.65,51.28-57.38,56.85-95.22a177.57,177.57,0,0,0-3.27-67.18,1.51,1.51,0,0,0-2.95.4q2.14,136.14,11.39,272h3q-5.48-42-8-84.29c-.73-12.48-2-25.72,2.17-37.76,3.42-9.93,10.61-17.48,19.26-23.16,15.76-10.33,34.49-15.14,50-25.9,15.21-10.55,24.4-26.51,28.43-44.36,5.05-22.39,3.19-45.82.65-68.41-.17-1.51-2.69-2.23-3-.4l-43.89,310.75q-11,78.12-22.08,156.26c-7,49.58-13.73,99.28-16.73,149.29-3.36,56-1.77,112.46,9.46,167.57.38,1.89,3.28,1.09,2.89-.8-20.4-100.12-8.41-202.8,5.55-302.92Q1478.31,625.7,1500.14,473l24.57-173.92-2.94-.4c4.48,39.78,7,89.4-32.1,113.09-16,9.68-34.72,14.54-49.69,25.94-16.59,12.63-20.1,30.87-19.25,50.8,1.33,31.44,4.47,62.86,8.54,94.05.24,1.86,3.14,2,3,0q-9.26-135.84-11.39-272l-2.94.4c9,37.58,6.15,78.68-11.85,113.26-17,32.57-47.47,56.49-83.5,64.22a105,105,0,0,1-58.74-3.88l.67,2.51c19.42-17.92,48.62-22.64,73.19-13.41,5.2,2,14,5.43,17.62,10s.74,16.4-.56,21.37a59.16,59.16,0,0,1-22.83,33.22c-12,8.42-27.33,11.26-41.68,8.79-13-2.24-28.57-9.4-35.12-21.59-4.83-9,.22-17.07,5.57-24.3a200.42,200.42,0,0,1,15-17.92,212,212,0,0,1,118-63.55c1.91-.34,1.09-3.2-.8-2.9a936.78,936.78,0,0,1-165.52,11.33l.76,2.8a1215.54,1215.54,0,0,1,182.52-72.17,1.5,1.5,0,0,0-.4-2.94,1942.25,1942.25,0,0,0-207,4.3c-1,.08-2,1.27-1.29,2.26a944.65,944.65,0,0,0,75.85,90.17l1.07-2.56a576.77,576.77,0,0,0-72.42,4.65q-16,2.07-31.78,5c-10.1,1.89-20.63,3.53-30.24,7.31-7,2.73-13.55,6.9-17.39,13.5-4.54,7.81-4.46,17.38-5,26.12l-4.21,73.54h3a771.17,771.17,0,0,1,15.6-253.9l-2.94-.4c-.28,67.51-49,130.68-114.27,148.07l1.46,2.5c13.84-11.44,37-7.51,46.86,7.38,10.4,15.66,2.32,38.51-13.61,47.06-11.6,6.23-25.3,3.77-37.36.34-2.08-.59-6.06-.95-7.27-2.95-.83-1.37.07-5.74.2-7.36a75.6,75.6,0,0,1,3.3-16.64c6.63-21,21.29-38.78,38.63-52,20.47-15.67,44.4-25.89,68-36,1.43-.61.62-2.79-.76-2.8L956.39,413l.39,2.94,181.28-74.79c1.46-.61,1.42-2.94-.4-2.95a826.89,826.89,0,0,0-102.18,6q-23.91,2.93-47.64,7.22c-11.7,2.13-27.42,2.76-34.07,14.3-6,10.49-6.75,25.34-8.32,37.11-1.89,14.12-3.05,28.33-4,42.55-1.88,28.49-2.77,57.12-7,85.4-4.54,30.71-13.4,60.72-31.15,86.51l2.59,1.51,30.27-57.85c6.79-13,17.74-29.21,14.1-44.7-3.5-14.87-19.49-17-32.34-16a355.64,355.64,0,0,0-57.73,9.42,388,388,0,0,0-64,21.74c-1.6.7-.44,3.13,1.16,2.74a258.45,258.45,0,0,0,140.56-90.66,1.52,1.52,0,0,0-1.46-2.51l-176,34.91.8,2.89q95.34-20.43,189.17-47.18a1.5,1.5,0,0,0,.66-2.5c-36.37-35-98-36.69-136.3-3.92a1.5,1.5,0,0,0,1.45,2.5,271.81,271.81,0,0,0,87.22-49.92,1.5,1.5,0,0,0-.66-2.5,356.69,356.69,0,0,0-108.42,1.18l.8,2.89a378.6,378.6,0,0,0,111.68-66.34,1.51,1.51,0,0,0-.66-2.51,251.31,251.31,0,0,0-113.55,2.43,1.52,1.52,0,0,0-1.1,1.45q5.51,43.28,11,86.55l5.44,42.7c1.69,13.28,3.8,26.64,3.61,40.06-.41,27.16-14.63,48.24-35.79,64.22-20,15.12-43.55,26.25-67.05,34.75a307.92,307.92,0,0,1-87.43,17.77l1.06,2.56,38.37-48.82c5.94-7.55,12.27-14.94,17.81-22.79,3.82-5.42,7.31-11.84,8-18.55,1.54-16.09-14.65-17.23-26.63-17.73l-64.3-2.63.4,2.95,77.33-18.66L712,467.33c7.64-1.85,16.12-3.76,19.72-11.58,1.75-3.81,2.07-8.08,2.35-12.2.47-6.88.74-13.78.95-20.68q.59-19.53,0-39.08t-2.25-39c-.94-10.73-1.62-21.82-4.49-32.26-4.16-15.13-16.4-29.61-33.72-26.2a18.58,18.58,0,0,0-8.19,3.77c-3.21,2.65-3.58,3.49-2.51,7.24a138.61,138.61,0,0,1,5.15,32.37,146.91,146.91,0,0,1-11.63,63.45c-8.52,19.93-21.83,39.84-40.17,51.94C620,456.47,594,459.52,579,442.5c-15.33-17.38-8.35-47.33.22-66.32,4.55-10.09,11.46-19.48,21.56-24.51,10.34-5.16,23.24-5.71,32.51,2,15.83,13.17,13.63,38.26,7.83,55.71-14.32,43.09-55.45,69.49-96.78,82.53a331.78,331.78,0,0,1-34.31,8.65c-11.62,2.35-24.24,5.69-36.14,5.36-6.6-.18-13.24-2.27-17.19-7.89-4.62-6.57-2.33-14.13,4.57-18,9.87-5.47,22.4-2,30.75,4.63,18.49,14.62,18.6,44.43,8.16,63.78-9.48,17.56-32.85,34.18-51,17.38-13.1-12.11-12.83-33.86-8.77-49.84,5.35-21,18.09-43.6,39.53-51.26,10.93-3.9,22.89-3.72,33.12,2a1.52,1.52,0,0,0,2.26-1.3A1152.48,1152.48,0,0,1,517,317.42l-3,.4c3.34,13.24-5,24.41-13.47,33.67-7.8,8.52-16.51,16.18-23.08,25.76a93.92,93.92,0,0,0-14.74,68.63c.26,1.47,2.59,1.39,2.9,0a326.93,326.93,0,0,0,5.9-107.27,1.5,1.5,0,0,0-3,0l-6.58,58.1c-1.28,11.36-.6,45.59-20.53,38.92-12.19-4.08-20.24-16.26-31.57-22.09-11.88-6.11-25.78-2.86-36.12,4.87-13.62,10.19-19.78,27-25.41,42.42-.61,1.67,1.85,2.5,2.74,1.16l73.3-110.38c1.07-1.61-1.53-3.12-2.59-1.51Z"/></svg>