<svg id="레이어_1" data-name="레이어 1" xmlns="http://www.w3.org/2000/svg" viewBox="0 0 1920 1080"><path d="M1446,10.8c28.34,45.35,11,104.67-24.54,140.57-38.83,39.18-93.81,55.57-146.28,66.9-34,7.33-68.27,13.15-101.61,23.07a1.51,1.51,0,0,0,.8,2.9,332.74,332.74,0,0,1,63.7-10.52q15.62-1,31.27-.53c10,.31,23.25,1,25.67,13.08,1.73,8.65-2.6,18-6.84,25.26-5,8.66-10.85,17-16.69,25.09a429.06,429.06,0,0,1-39,46.71l2.51,1.46c10.31-30.06,44.4-39.59,70.57-51,23.44-10.24,49.88-27.15,51.46-55.36.1-1.75-2.44-1.95-3-.4l-55.22,168.79h2.9c-11.77-29.13-50.54-29.48-72.43-12.45-13.58,10.57-22.67,25.88-29.21,41.56-6.41,15.38-11.63,34.91,2.63,47.64,10.48,9.36,26,11.32,39.55,11.11,20.64-.3,41.8-4.42,61.81-9.21,31.31-7.49,72.82-19.09,85.82-52.45,8.75-22.43.23-47.41-5.32-69.54q-10-40.07-20.09-80.15l-1.45,1.9,141.54.74-.4-2.94L1352.87,320.5a1.51,1.51,0,0,0,0,2.89,309.31,309.31,0,0,0,146.49,9.49c1.57-.28,1.27-2.46,0-2.9a132.7,132.7,0,0,0-66.09-5c-18.16,3.25-41.72,10.1-52.5,26.39-4.27,6.45-5.69,14.55-.84,21.11s13.78,8.53,21.43,9.69a142.13,142.13,0,0,0,70.27-7.31,1.52,1.52,0,0,0,.36-2.74c-26.88-18-64.41-15.66-87.72,7.25a72.2,72.2,0,0,0-20.69,40.68c-2.35,16.12,7.7,41.13-9.13,51.48-9.91,6.09-23.89,8-35.24,9.35a152.08,152.08,0,0,1-38.37-.4v2.89a790.74,790.74,0,0,1,307.75.69v-2.89a686.24,686.24,0,0,1-296,49.42,676.47,676.47,0,0,1-149.81-25.19c-48.92-14.08-95.76-34.27-144.07-50.19-46.63-15.37-95.56-26.9-145-22.86-32.33,2.64-79.6,17.74-75.24,58.85,1.72,16.2,11.67,31.08,25.08,40.06,14.91,10,33.37,10.93,49.76,4,16.78-7.08,30.27-21.33,37.36-38,6.23-14.66,9.77-37.41-4.56-48.72-11.88-9.38-29.34-3.73-39.18,5.91-15.42,15.12-12.12,39.49-6.84,58.29,7,25.06,20.46,52.8,5.85,77.8-12.65,21.64-37.93,31.09-61.66,33.66-13,1.41-26.1,1.15-39.15.89v3a412.62,412.62,0,0,0,76.28-8.52q19.32-4,38.19-9.9c10.44-3.26,21.3-6.55,30.78-12.14,18.88-11.14,22.28-30.76,23.68-51,1.91-27.65,3.72-55.3,5.58-82.94l6.29-93.31h-3q1.76,142.11,3.53,284.22l2.95-.4a347.56,347.56,0,0,1-6.14-83c.58-12.1-.12-27.88,6.31-38.62,6.72-11.24,22.09-13.4,33.9-15.4a198.41,198.41,0,0,1,80.61,3.07,68.79,68.79,0,0,1,9.18,2.51c3.18,1.28,3.76,2.07,4,5.48a93.81,93.81,0,0,1-.42,18.58,121.9,121.9,0,0,1-11.21,37.2c-19.74,41.77-56,76.36-95,100.27A277.15,277.15,0,0,1,817.9,724.79c-106.56,4.61-204.83-44.79-307-66.44-46-9.75-93.85-14.8-140.56-7.26-22.86,3.69-45.56,10.43-66.21,21-14.72,7.56-32,21.13-29.61,39.75,2,15.92,17.68,24.9,32,28,23.24,5,46.69-5.93,69.93-.87,21.65,4.72,35,24.11,39.25,44.86,4.85,23.81-3.44,47.5-14.79,68.22-5.87,10.73-12.64,20.94-19.43,31.12l2.75,1.15a1601.82,1601.82,0,0,1,76.4-205l-2.8-.76-11,261.47h3q2.28-65.37,8.65-130.51,1.59-16.11,3.43-32.19c1.1-9.58,1.34-20,4.77-29.16,4.31-11.4,14.34-13.12,25.29-12.32,10.6.77,21.18,1.71,31.77,2.57l74.35,6-1.45-1.9A221,221,0,0,1,468.05,866.79l1.46,2.5c25.86-26.81,56.36-51.08,92.72-61.51,34.32-9.86,73.72-6.06,102.16,16.81l.66-2.51a1090.29,1090.29,0,0,0-196,61.49,1.5,1.5,0,0,0,.8,2.89l200.72-40.15c1.61-.32,1.22-2.39,0-2.89C645,833,614,838.49,594.05,857.79s-26.34,50.17-16.82,76l2.51-1.46-36.61-30a1.56,1.56,0,0,0-1.81-.23c-15.1,7.94-32.19,18.87-39.11,35.24a29.22,29.22,0,0,0,12.84,37c14,7.93,32,7.63,47.45,6,26.37-2.73,52.69-6.08,79-9.13l90.32-10.44c1.89-.22,1.92-3.23,0-3L574.43,976c-18.35,2.12-39.33,5.21-56.54-3.53-8.42-4.28-14.45-12.22-15.1-21.82-.7-10.23,5.25-19.35,12.14-26.36a92.18,92.18,0,0,1,14.73-11.91c2.16-1.43,4.36-2.79,6.59-4.1,2.93-1.71,4.54-3.4,7.65-1.49,5.81,3.59,11.1,9.1,16.38,13.43l17.34,14.21c1,.85,3.07.1,2.5-1.46-9.17-24.91-3.2-54.47,16-73.1s49-23.57,73.6-13.6v-2.89L469.05,883.57l.8,2.89a1090,1090,0,0,1,196-61.49,1.5,1.5,0,0,0,.66-2.5c-28.21-22.69-66.7-27.44-101.16-18.65-38.49,9.82-70.86,35.26-98,63.35-1,1,0,3,1.46,2.51A224.19,224.19,0,0,0,599.49,743.44c.4-1-.58-1.83-1.44-1.9l-70.5-5.72c-11.88-1-23.74-2-35.62-2.89-7.5-.55-15.7-.63-21.71,4.6-5.39,4.7-7.51,11.88-8.7,18.69-1.82,10.38-2.66,21-3.8,31.48q-3.87,35.41-6.51,70.93-3,40.7-4.42,81.48c-.07,1.93,2.91,1.92,3,0l11-261.47c.06-1.42-2.17-2.13-2.79-.75a1609.72,1609.72,0,0,0-76.71,205.67c-.5,1.69,1.83,2.53,2.74,1.15,20.15-30.23,42.79-65.33,34.15-103.39C415,767.2,407.7,753.5,396,744.67c-15.43-11.62-34.49-10.64-52.72-8.44s-37.25,4.43-53.42-6.35c-7.36-4.91-12.55-12.39-12.56-21.46,0-10.11,6.76-18.58,14.22-24.67C307.09,671,328.25,664.07,347.44,659a267.12,267.12,0,0,1,61.84-8.43c87.16-2.13,169.35,29.93,251.84,53.39,42.76,12.17,86.54,22.31,131.13,23.91,40.06,1.44,80-4.71,117.22-19.67a282.94,282.94,0,0,0,91.8-59.57c27.08-26.36,52.24-60,58.1-98.29a99.45,99.45,0,0,0,.33-27.73,1.6,1.6,0,0,0-1.11-1.45,203.55,203.55,0,0,0-68.33-9.76,201,201,0,0,0-33.44,3.83c-8.53,1.72-17.67,3.73-24.51,9.45-6.43,5.37-8.74,13.2-9.89,21.21a286.49,286.49,0,0,0-2.51,36.44,352.62,352.62,0,0,0,6.59,72.55c.33,1.68,3,1.27,3-.4q-1.77-142.11-3.53-284.22a1.5,1.5,0,0,0-3,0l-10.3,152.92c-1.47,21.88,1.17,51.86-17.49,67.42-8.67,7.23-19.91,10.83-30.47,14.31q-17.56,5.77-35.62,9.94a408.76,408.76,0,0,1-83.92,10.26,1.5,1.5,0,0,0,0,3c37.6.73,88.42-.88,106.15-41.44,9.24-21.16,1.46-43.95-5.21-64.61-6.61-20.5-14.67-49.88,4.15-66.56,6.77-6,16.4-10,25.54-8.37,11.59,2.1,16.86,13.32,17.22,24.14.68,20-10.5,39.92-25.8,52.24-15.73,12.68-37.58,17.74-56.25,8.58-16.4-8.06-29.1-25.63-29.69-44.15-.65-20.31,14.42-35.48,31.88-43.29,19.41-8.69,41.61-10.24,62.6-10.12,47.36.28,93.46,13.44,137.85,28.9,44.65,15.55,88.4,33.77,134,46.46A679.15,679.15,0,0,0,1283.26,533a689.27,689.27,0,0,0,273.44-36.55q16.5-5.78,32.68-12.41c1.22-.5,1.62-2.57,0-2.89a794.41,794.41,0,0,0-309.34-.69c-1.39.27-1.47,2.7,0,2.89a154.32,154.32,0,0,0,57.49-2.78c14.59-3.57,28.24-8.83,29.57-25.7.65-8.28-1.18-16.5-1.24-24.77a66.35,66.35,0,0,1,5.59-26.78c7.39-17,21.46-30.8,39.13-36.76a68.91,68.91,0,0,1,59.89,8.13l.36-2.74a140.33,140.33,0,0,1-58.55,8.43c-9-.66-22-1.25-28.81-8.35-8.19-8.62-1-19.78,6.13-26.1,13.72-12.06,35.06-17.32,52.8-19.29a129.91,129.91,0,0,1,56.16,6.22V330a305.91,305.91,0,0,1-144.9-9.48v2.89L1505,285.91a1.51,1.51,0,0,0-.4-3l-141.54-.74a1.51,1.51,0,0,0-1.44,1.9q7.53,30,15.07,60.11c4.77,19.07,11.07,38.37,13.32,57.94,2.16,18.71-2.42,36-16.21,49.19-11.09,10.6-25.47,17.36-39.8,22.39a337.28,337.28,0,0,1-54.69,13.74c-16,2.73-32.73,5.49-49,3.64-15.54-1.76-32.56-9.11-33.91-26.89-1.25-16.54,9-35.77,18-49.19,10-14.84,24.85-27.75,43.31-29.28,16.49-1.37,34.54,5.68,41.06,21.84a1.52,1.52,0,0,0,2.9,0L1357,238.82l-3-.4c-1.83,32.61-37.21,47.59-63.17,58.15-23.53,9.58-49.89,21.59-58.76,47.43a1.51,1.51,0,0,0,2.51,1.45,433,433,0,0,0,43.58-53.09c8.85-12.76,25.71-33.1,18.79-50.07-3-7.34-10.08-10.46-17.5-11.46-11.08-1.5-22.74-1-33.87-.51a335.87,335.87,0,0,0-72,11l.8,2.9c60.07-17.88,123.92-22.3,182-47,47.78-20.32,91.18-55.68,103.53-108.25,6.34-27,3.59-55.9-11.29-79.71-1-1.63-3.62-.13-2.59,1.51Z"/></svg>